<?xml version="1.0" encoding="UTF-8" standalone="no"?>
<svg
   version="1.1"
   width="500"
   height="200"
   id="svg33"
   xmlns="http://www.w3.org/2000/svg"
   xmlns:svg="http://www.w3.org/2000/svg">
  <defs
     id="defs33" />
  <path
     id="path1-6"
     d="M 31,97 C 20.062286,121.41945 13.068095,145.60515 9,172 l -0.3652344,2.29688 C 7.5300964,182.41285 7.7576965,190.69884 7.75,198.875 l -0.00391,2.53906 c 0.00798,23.12274 2.339195,45.33134 9.12891,67.52344 l 0.791016,2.5957 C 18.433783,274.02575 19.213377,276.51334 20,279 c 0.208828,0.66209 0.417657,1.3237 0.632812,2.00586 C 23.795494,290.86025 28.175863,299.88332 33,309 c 0.377856,0.72768 0.755224,1.45535 1.144531,2.20508 C 40.110297,322.65418 46.962035,332.90864 55,343 c 1.14082,1.45986 1.14082,1.45986 2.304688,2.94922 C 65.589201,356.34279 74.599826,366.67246 85,375 c 1.013203,0.82758 2.026406,1.65516 3.070312,2.50781 C 110.71096,395.80283 135.38767,408.869 163,418 c 0.67901,0.22575 1.359,0.451 2.05859,0.68359 19.70384,6.4462 39.06716,8.96143 59.77344,8.72852 3.3627,-0.0367 6.72502,-0.0415 10.08789,-0.041 C 266.28875,427.26922 293.40922,421.08969 323,411 c 1.24781,-0.42281 2.49563,-0.84562 3.78125,-1.28125 29.15987,-10.5216 56.23432,-29.92994 78.94141,-50.66406 1.9511,-1.76035 3.93748,-3.44653 5.96484,-5.11719 3.12095,-2.65643 5.749,-5.59043 8.39453,-8.71484 1.3153,-1.52425 2.66957,-3.01548 4.05469,-4.47657 C 441.76074,322.13164 456.18851,300.19866 467,277 c 0.36722,-0.76925 0.73493,-1.53753 1.11328,-2.33008 C 473.8139,262.71415 478.39403,250.743 482,238 c 0.19433,-0.67934 0.38962,-1.35867 0.58984,-2.05859 2.25223,-7.93983 4.12841,-15.93428 5.79688,-24.01563 0.32703,-1.56017 0.67,-3.12033 1.11719,-4.65039 0.6939,-3.18336 0.866,-6.37094 1.04687,-9.61523 0.0418,-0.73855 0.0839,-1.47735 0.12695,-2.23828 0.46361,-9.01316 0.50858,-18.0275 0.50782,-27.05079 0.002,-2.93284 0.0203,-5.86605 0.0391,-8.79882 C 491.27114,144.08661 490.30265,128.97322 486,114 c -1.92388,-1.92388 -5.47477,-1.34649 -8.10547,-1.46484 -1.14188,-0.0563 -1.1417,-0.0558 -2.30664,-0.11328 -2.5915,-0.1254 -5.18347,-0.24312 -7.77539,-0.35938 -1.35945,-0.063 -1.35917,-0.0628 -2.74609,-0.12695 -31.75657,-1.46427 -63.55864,-2.55899 -95.34375,-3.17774 -1.27636,-0.0249 -1.27598,-0.0255 -2.57813,-0.0508 -1.67703,-0.0324 -3.35422,-0.0634 -5.03125,-0.0957 -18.85782,-0.365 -37.67843,-1.2134 -56.51562,-2.15039 -23.37838,-1.16243 -46.75359,-1.96343 -70.15235,-2.58203 C 202.13288,102.9973 202.13362,102.99658 186,101.9375 172.55098,101.05679 159.13149,100.6963 145.6582,100.44727 130.22013,100.15967 114.80219,99.64345 99.375,99 76.587712,98.052095 53.802446,97.436427 31,97 Z"
     transform="matrix(1.7118251,0,0,1.1604535,-152.75874,-375.37265)"
     style="fill:#c84c46;fill-opacity:1;stroke-width:0.709507" />
  <path
     d="M 0,0 C 1.07227,3.7572502 0.81553274,6.4983663 0.1875,10.375 0.01605469,11.475859 -0.15539062,12.576719 -0.33203125,13.710938 -1,17 -1,17 -1.9418945,19.693115 -6.638361,34.370928 -6.50232,50.051969 -6.4460449,65.296143 c 0.00851,3.501494 -0.02037,7.00135 -0.052002,10.502685 C -6.5564653,94.289961 -4.4502843,111.97218 1.25,129.625 c 0.2966455,0.94182 0.593291,1.88364 0.8989258,2.854 C 12.645921,165.09682 29.383098,193.2302 53,218 c 0.727031,0.77988 1.454062,1.55977 2.203125,2.36328 C 65.706687,231.31422 78.270354,239.86174 91,248 c 0.871406,0.56461 1.742812,1.12922 2.640625,1.71094 C 100.75485,254.16322 108.33181,257.62879 116,261 c 1.17434,0.51691 2.34867,1.03383 3.55859,1.56641 30.00793,12.5882 61.1512,16.13998 93.44141,15.43359 0.78149,-0.009 1.56299,-0.0174 2.36816,-0.0264 27.633,-0.35036 55.47799,-9.00395 80.63184,-19.9736 0.8018,-0.34934 1.60359,-0.69867 2.42969,-1.05859 C 321.59184,246.70958 342.05398,232.70797 361,216 c 0.5116,-0.44843 1.02319,-0.89687 1.55029,-1.35889 37.23023,-32.79046 63.1214,-78.16131 73.92237,-126.355954 0.66603,-2.88616 1.43817,-5.739527 2.21484,-8.597656 3.69002,-14.918669 3.85542,-30.410967 4.4375,-45.6875 0.0866,-2.143254 0.17386,-4.286484 0.26172,-6.429688 C 443.59816,22.380464 443.8014,17.190355 444,12 c 3.96,0 7.92,0 12,0 1.33159,4.404475 2.48382,8.839149 3.5625,13.3125 0.24879,1.027383 0.49758,2.054766 0.75391,3.113281 1.50994,7.894859 1.83487,15.775988 1.8164,23.796875 10e-4,1.416531 10e-4,1.416531 0.003,2.861679 6.8e-4,1.987433 -10e-4,3.974868 -0.005,5.962296 -0.005,2.983858 -6e-5,5.967563 0.006,8.951416 0.0135,31.616163 0.0135,31.616163 -3.32422,42.287113 -0.92422,3.08814 -1.55606,6.17906 -2.1875,9.33984 -1.13338,5.41175 -2.49947,10.70047 -4.0625,16 -0.1932,0.65565 -0.3864,1.3113 -0.58545,1.98682 -0.64184,2.13511 -1.30585,4.26211 -1.97705,6.38818 -0.28601,0.91709 -0.57202,1.83417 -0.8667,2.77905 -2.32937,7.25381 -5.16129,14.13373 -8.3833,21.03345 -0.73005,1.57129 -0.73005,1.57129 -1.47485,3.17432 C 426.33815,200.61672 409.15063,226.80322 387,248 c -2.42351,2.40393 -4.82738,4.81905 -7.18359,7.28906 -29.20591,30.26886 -68.07058,49.12591 -107.48536,61.94434 -1.95831,0.64402 -3.90759,1.31542 -5.85449,1.99316 -20.17004,6.79249 -42.16446,7.01262 -63.22534,7.12354 -2.26931,0.0164 -4.53857,0.0435 -6.80762,0.082 C 143.98384,327.31201 90.896297,306.06998 52.523437,270.33594 50.351971,268.32582 48.137852,266.40509 45.875,264.5 26.587823,247.63348 12.572688,224.97515 1.182373,202.33765 0.45384395,200.89729 -0.28694383,199.46296 -1.0476074,198.03931 -4.2089766,192.03622 -6.3650601,185.71954 -8.5625,179.3125 c -0.3860742,-1.09506 -0.7721484,-2.19012 -1.1699219,-3.31836 -2.2900711,-6.62833 -4.1364871,-13.22992 -5.6291501,-20.08179 -0.516563,-2.35643 -1.093243,-4.67123 -1.724365,-6.99829 -6.554316,-26.09513 -7.121318,-59.417573 -1.354004,-85.751462 0.481154,-2.365188 0.836256,-4.730445 1.178222,-7.119629 C -15.568495,44.724498 -12.63816,34.014904 -9,23.1875 -8.7847165,22.545658 -8.569433,21.903815 -8.3476257,21.242523 -5.8963996,13.989626 -3.2399151,6.9373181 0,0 Z"
     fill="#1e5c30"
     transform="matrix(1.7191957,0,0,1.1768634,-101.56219,-258.96233)"
     id="path3"
     style="stroke-width:0.459768" />
  <path
     d="M 0,0 C 0.33,0 0.66,0 1,0 1.0145825,1.1069824 1.029165,2.2139648 1.0441894,3.3544922 0.79253189,35.108597 0.79253189,35.108597 7,66 c 0.5188867,2.667462 0.9317443,5.337113 1.3398438,8.023437 0.6886886,3.105212 1.6940272,5.899446 2.8459472,8.856446 0.803311,2.091738 1.535048,4.196512 2.251709,6.319336 C 23.155058,117.39772 39.343477,142.58059 60,164 c 0.886875,0.96164 1.77375,1.92328 2.6875,2.91406 C 82.164447,187.65655 109.2916,203.51124 136,213 c 0.87253,0.31228 1.74507,0.62455 2.64404,0.94629 C 177.13866,227.2877 221.52591,229.37202 261,219 c 1.17563,-0.28617 2.35125,-0.57234 3.5625,-0.86719 C 299.54774,209.31362 332.58544,192.45425 360,169 c 1.16753,-0.9823 2.33552,-1.96403 3.50391,-2.94531 9.18805,-7.75056 17.52988,-15.60686 25.02734,-25.05078 2.03868,-2.48061 4.13794,-4.83305 6.30469,-7.19922 4.26777,-4.77662 7.79905,-9.8817 11.28906,-15.24219 0.58137,-0.87721 1.16273,-1.75441 1.76172,-2.6582 C 427.77359,85.718079 440.10683,52.617519 446,17 c 0.33,0 0.66,0 1,0 0.88163,19.134601 -2.89488,37.373107 -8.30957,55.624512 -0.59057,2.0319 -1.12663,4.079507 -1.65137,6.129394 -8.7782,34.106134 -29.31481,66.335304 -53.01172,92.031254 -1.80007,1.96655 -3.50822,3.98025 -5.21484,6.02734 C 370.66038,186.159 360.94409,194.62676 351,202 c -0.66677,0.49581 -1.33354,0.99161 -2.02051,1.50244 -18.26776,13.47474 -37.54267,24.03582 -58.58252,32.52881 -1.61981,0.65466 -3.23468,1.32168 -4.84472,2 -6.03686,2.50833 -12.09348,4.36553 -18.42725,5.96875 -0.99669,0.25419 -1.99337,0.50837 -3.02026,0.77026 C 248.38601,248.71709 233.23241,251.71654 217,252 c -0.87495,0.0205 -1.7499,0.0409 -2.65137,0.062 C 155.02061,253.32364 101.0261,234.04582 58,193 56.721895,191.80117 56.721895,191.80117 55.417969,190.57812 44.181128,179.74829 35.387146,167.08832 27,154 26.458594,153.175 25.917187,152.35 25.359375,151.5 16.269323,137.11574 10.178741,121.12778 5,105 4.4160547,103.21916 4.4160547,103.21916 3.8203125,101.40234 -1.882876,82.855928 -3.6400728,64.43445 -3.4665527,45.093018 c 0.029227,-3.551657 0.020496,-7.101836 0.00757,-10.653565 C -3.4463271,22.627126 -3.1246931,11.445305 0,0 Z"
     fill="#fcfbfb"
     transform="matrix(1.7118251,0,0,1.1604535,-110.36039,-197.52294)"
     id="path4"
     style="stroke-width:0.464003" />
  <path
     d="M 0,0 C 3.2996097,0.1178432 4.2887999,1.2820837 6.6875,3.625 9.263103,6.8800565 9.7513894,9.8564907 10,14 7.8125,14.375 7.8125,14.375 5,14 0.66658872,9.9620486 -0.76173912,7.0756524 -1,1 -0.67,0.67 -0.34,0.34 0,0 Z"
     fill="#0f0505"
     transform="matrix(1.7118251,0,0,1.1604535,91.634969,-8.813103)"
     id="path8"
     style="stroke-width:0.464003" />
  <path
     d="M 0,0 C 3.8147712,0.54496731 5.5233815,2.1106117 8,5 9.778494,7.6253958 10.059703,8.56218 9.625,11.75 9.41875,12.4925 9.2125,13.235 9,14 6.8125,14 6.8125,14 4,13 1.8383903,10.558921 0.26010789,8.0061767 -1,5 -0.8125,2 -0.8125,2 0,0 Z"
     fill="#0b0403"
     transform="matrix(1.7118251,0,0,1.1604535,352.1404,17.892857)"
     id="path12-7"
     style="stroke-width:0.464003" />
  <path
     d="M 0,0 C 2.25,-0.3125 2.25,-0.3125 5,0 9.5023594,4.7524904 10.119517,7.546077 10,14 7.8125,14 7.8125,14 5,13 2.1159303,9.6638329 0.14683841,6.4096488 -0.3125,2 -0.209375,1.34 -0.10625,0.68 0,0 Z"
     fill="#0c0404"
     transform="matrix(1.7118251,0,0,1.1604535,273.08843,22.519141)"
     id="path20"
     style="stroke-width:0.464003" />
  <path
     d="m 0,0 c 4.4111053,1.3478377 6.6165072,3.027512 9,7 0.25,3.8125 0.25,3.8125 0,7 C 5.1909409,13.782339 4.0063361,13.006055 1.1875,10.3125 -1.1717651,6.7398985 -1.5827537,5.1764013 -1,1 -0.67,0.67 -0.34,0.34 0,0 Z"
     fill="#0b0403"
     transform="matrix(1.7118251,0,0,1.1604535,185.78535,12.07506)"
     id="path21"
     style="stroke-width:0.464003" />
</svg>
