<?xml version="1.0" encoding="UTF-8"?>
<svg version="1.1" xmlns="http://www.w3.org/2000/svg" width="500" height="500">
<path d="M0 0 C165 0 330 0 500 0 C500 165 500 330 500 500 C335 500 170 500 0 500 C0 335 0 170 0 0 Z " fill="#C84C46" transform="translate(0,0)"/>
<path d="M0 0 C165 0 330 0 500 0 C500 165 500 330 500 500 C335 500 170 500 0 500 C0 335 0 170 0 0 Z M31 97 C20.06228577 121.41944534 13.06809496 145.60514905 9 172 C8.87915039 172.75780762 8.75830078 173.51561523 8.63378906 174.29638672 C7.52911987 182.41236379 7.75769648 190.69884092 7.75 198.875 C7.74866058 199.71304169 7.74732117 200.55108337 7.74594116 201.41452026 C7.75392316 224.53725537 10.085285 246.7454002 16.875 268.9375 C17.13619629 269.79375977 17.39739258 270.65001953 17.66650391 271.53222656 C18.43426992 274.02477916 19.21337711 276.51334015 20 279 C20.20882813 279.66209473 20.41765625 280.32418945 20.6328125 281.00634766 C23.79549387 290.86073569 28.17586296 299.8833228 33 309 C33.37785645 309.72767578 33.75571289 310.45535156 34.14501953 311.20507812 C40.11078569 322.65417666 46.96203535 332.9086441 55 343 C56.14082031 344.45986328 56.14082031 344.45986328 57.3046875 345.94921875 C65.589201 356.34279338 74.59982597 366.67245852 85 375 C86.01320313 375.82757813 87.02640625 376.65515625 88.0703125 377.5078125 C110.71095834 395.80282631 135.38766846 408.8690043 163 418 C163.67901367 418.22574707 164.35802734 418.45149414 165.05761719 418.68408203 C184.76146342 425.13028498 204.12648321 427.64453083 224.83276367 427.41162109 C228.1954584 427.37491312 231.55704637 427.37060528 234.91992188 427.37109375 C266.28875039 427.26924924 293.40921672 421.08969401 323 411 C324.2478125 410.5771875 325.495625 410.154375 326.78125 409.71875 C355.9411203 399.19714732 383.01556875 379.78880532 405.72265625 359.0546875 C407.6737616 357.29434202 409.66013544 355.60815677 411.6875 353.9375 C414.80844668 351.28106631 417.4365012 348.34706812 420.08203125 345.22265625 C421.3973311 343.69840856 422.75159637 342.20718263 424.13671875 340.74609375 C441.76073521 322.13163669 456.18850799 300.19866183 467 277 C467.36722168 276.23075195 467.73444336 275.46150391 468.11279297 274.66894531 C473.81341385 262.71317775 478.394027 250.74299749 482 238 C482.19432617 237.32066406 482.38865234 236.64132813 482.58886719 235.94140625 C484.84110409 228.00158331 486.71825064 220.00713238 488.38671875 211.92578125 C488.71375023 210.36561198 489.05671647 208.80594395 489.50390625 207.27587891 C490.19781247 204.09251583 490.36990796 200.90444809 490.55078125 197.66015625 C490.59262039 196.92160904 490.63445953 196.18306183 490.67756653 195.4221344 C491.14117882 186.40897456 491.186057 177.3936548 491.18530273 168.37036133 C491.18749999 165.43751725 491.20577345 162.50504426 491.22460938 159.57226562 C491.27113243 144.08660529 490.30264861 128.97321715 486 114 C484.07612171 112.07612171 480.52522727 112.65350984 477.89453125 112.53515625 C476.7526535 112.47882523 476.7526535 112.47882523 475.58770752 112.4213562 C472.99621021 112.29596325 470.40442251 112.17875576 467.8125 112.0625 C466.45304764 111.99955246 466.45304764 111.99955246 465.06613159 111.93533325 C433.30956434 110.47105843 401.50776527 109.37656119 369.72265625 108.7578125 C368.44629555 108.7329628 368.44629555 108.7329628 367.14414978 108.70761108 C365.46712337 108.67524233 363.790096 108.64292345 362.11306763 108.61065674 C343.25524585 108.24566216 324.43403179 107.39860603 305.59684372 106.46161652 C282.21846444 105.29918697 258.8448091 104.49683919 235.44605255 103.87824249 C202.13362439 102.99657584 202.13362439 102.99657584 186 101.9375 C172.55097835 101.05678531 159.13179894 100.69651301 145.6585083 100.44747925 C130.2204364 100.15987788 114.80219372 99.64344965 99.375 99 C76.58771216 98.05209468 53.80244622 97.43642743 31 97 Z " fill="#FEFEFE" transform="translate(0,0)"/>
<path d="M0 0 C1.07226997 3.75725017 0.81553274 6.49836628 0.1875 10.375 C0.01605469 11.47585937 -0.15539062 12.57671875 -0.33203125 13.7109375 C-1 17 -1 17 -1.94189453 19.69311523 C-6.63836104 34.37092761 -6.50231999 50.0519694 -6.44604492 65.29614258 C-6.43753612 68.79763725 -6.46641495 72.29749317 -6.49804688 75.79882812 C-6.55646528 94.28996074 -4.45028427 111.97217705 1.25 129.625 C1.54664551 130.56682129 1.84329102 131.50864258 2.14892578 132.47900391 C12.64592127 165.09681742 29.38309834 193.23020226 53 218 C53.72703125 218.77988281 54.4540625 219.55976563 55.203125 220.36328125 C65.70668735 231.31421756 78.27035357 239.86174316 91 248 C91.87140625 248.56460938 92.7428125 249.12921875 93.640625 249.7109375 C100.75484707 254.16321555 108.33180661 257.6287897 116 261 C117.17433594 261.51691406 118.34867188 262.03382813 119.55859375 262.56640625 C149.56651518 275.15461425 180.70978885 278.70638578 213 278 C213.78149414 277.99129883 214.56298828 277.98259766 215.36816406 277.97363281 C243.00116334 277.62323623 270.84614797 268.96965113 296 258 C296.80179687 257.65066406 297.60359375 257.30132812 298.4296875 256.94140625 C321.59184221 246.70958062 342.05398228 232.70797102 361 216 C361.51159668 215.55156738 362.02319336 215.10313477 362.55029297 214.64111328 C399.78051637 181.85065011 425.67169319 136.47979832 436.47265625 88.28515625 C437.13869321 85.3989961 437.91083461 82.54562863 438.6875 79.6875 C442.37751612 64.76883078 442.54292371 49.27653285 443.125 34 C443.21162562 31.85674593 443.29886111 29.71351642 443.38671875 27.5703125 C443.59816347 22.38046407 443.8014025 17.19035527 444 12 C447.96 12 451.92 12 456 12 C457.33158559 16.40447543 458.48381967 20.83914923 459.5625 25.3125 C459.81128906 26.33988281 460.06007813 27.36726563 460.31640625 28.42578125 C461.82635186 36.32063972 462.15127571 44.20176938 462.1328125 52.22265625 C462.13424759 53.63918739 462.13424759 53.63918739 462.13571167 55.08433533 C462.13638772 57.07176785 462.13457387 59.05920266 462.13037109 61.04663086 C462.12505701 64.03048896 462.13031405 67.01419363 462.13671875 69.99804688 C462.15018033 101.61420712 462.15018033 101.61420712 458.8125 112.28515625 C457.8882781 115.37330153 457.25643931 118.46421572 456.625 121.625 C455.49161809 127.03675027 454.1255325 132.32547334 452.5625 137.625 C452.36930176 138.28064941 452.17610352 138.93629883 451.97705078 139.61181641 C451.3352077 141.74692706 450.67120093 143.87393177 450 146 C449.71398926 146.9170874 449.42797852 147.8341748 449.13330078 148.77905273 C446.80392939 156.03285898 443.9720124 162.91278012 440.75 169.8125 C440.01994751 171.38378662 440.01994751 171.38378662 439.27514648 172.98681641 C426.33814523 200.61672224 409.15063323 226.80322179 387 248 C384.57649338 250.40393064 382.1726167 252.81904582 379.81640625 255.2890625 C350.61050316 285.55791874 311.745835 304.41497426 272.33105469 317.23339844 C270.37274123 317.87741857 268.42346129 318.54881725 266.4765625 319.2265625 C246.30651746 326.01904553 224.31210255 326.23917991 203.2512207 326.35009766 C200.98190974 326.36653143 198.71264776 326.39365102 196.44360352 326.43212891 C143.98383969 327.31200535 90.89629744 306.06997612 52.5234375 270.3359375 C50.35197111 268.32581845 48.1378521 266.40508892 45.875 264.5 C26.58782312 247.63348095 12.57268779 224.97515391 1.18237305 202.33764648 C0.45384395 200.89728594 -0.28694383 199.4629583 -1.04760742 198.03930664 C-4.2089766 192.03622218 -6.36506007 185.71953818 -8.5625 179.3125 C-8.94857422 178.21744141 -9.33464844 177.12238281 -9.73242188 175.99414062 C-12.02249339 169.36580758 -13.86890943 162.76421543 -15.36157227 155.91235352 C-15.87813483 153.55591955 -16.45481517 151.24112074 -17.0859375 148.9140625 C-23.64025253 122.81893246 -24.20725529 89.49648738 -18.43994141 63.16259766 C-17.95878671 60.79740992 -17.6036848 58.43215325 -17.26171875 56.04296875 C-15.56849477 44.72449811 -12.63815991 34.01490361 -9 23.1875 C-8.78471649 22.54565765 -8.56943298 21.90381531 -8.34762573 21.24252319 C-5.89639964 13.98962646 -3.23991505 6.9373181 0 0 Z " fill="#1E5C30" transform="translate(29,101)"/>
<path d="M0 0 C0.33 0 0.66 0 1 0 C1.01458252 1.10698242 1.02916504 2.21396484 1.04418945 3.35449219 C0.79253189 35.10859655 0.79253189 35.10859655 7 66 C7.51888672 68.66746208 7.93174426 71.33711268 8.33984375 74.0234375 C9.02853244 77.12864925 10.03387145 79.92288264 11.18579102 82.87988281 C11.9891015 84.97162143 12.72083915 87.07639541 13.4375 89.19921875 C23.15505838 117.39771503 39.34347682 142.58059386 60 164 C60.886875 164.96164062 61.77375 165.92328125 62.6875 166.9140625 C82.16444679 187.65654783 109.29159543 203.51123914 136 213 C136.87253418 213.31227539 137.74506836 213.62455078 138.64404297 213.94628906 C177.1386578 227.2877038 221.52590634 229.37201951 261 219 C262.175625 218.71382812 263.35125 218.42765625 264.5625 218.1328125 C299.54773795 209.3136171 332.58543715 192.45425433 360 169 C361.16752708 168.01770397 362.33552317 167.03596521 363.50390625 166.0546875 C372.69196342 158.30413442 381.03378766 150.44782516 388.53125 141.00390625 C390.56992548 138.5233027 392.66919032 136.17085906 394.8359375 133.8046875 C399.1037062 129.02806945 402.63499419 123.92299207 406.125 118.5625 C406.70636719 117.68529297 407.28773438 116.80808594 407.88671875 115.90429688 C427.77358576 85.71807927 440.10682558 52.61751906 446 17 C446.33 17 446.66 17 447 17 C447.88162838 36.13460108 444.10511615 54.37310658 438.69042969 72.62451172 C438.09986298 74.65641202 437.56379958 76.70401872 437.0390625 78.75390625 C428.26085953 112.86004347 407.72424963 145.08921437 384.02734375 170.78515625 C382.22726728 172.75171378 380.5191193 174.76540802 378.8125 176.8125 C370.66037959 186.15900085 360.94408568 194.62676062 351 202 C350.33323242 202.49580566 349.66646484 202.99161133 348.97949219 203.50244141 C330.71172777 216.97717852 311.43681716 227.53825885 290.39697266 236.03125 C288.77715814 236.68590716 287.16229451 237.35292918 285.55224609 238.03125 C279.51538793 240.5395806 273.45876832 242.39678365 267.125 244 C266.12831299 244.25418701 265.13162598 244.50837402 264.10473633 244.77026367 C248.38600808 248.7170923 233.23241052 251.71653558 217 252 C216.12504883 252.02046387 215.25009766 252.04092773 214.34863281 252.06201172 C155.02060645 253.32364462 101.02609829 234.04581762 58 193 C56.72189453 191.80117188 56.72189453 191.80117188 55.41796875 190.578125 C44.18112809 179.74828802 35.38714578 167.0883206 27 154 C26.45859375 153.175 25.9171875 152.35 25.359375 151.5 C16.26932295 137.11574181 10.17874093 121.12777528 5 105 C4.41605469 103.21916016 4.41605469 103.21916016 3.8203125 101.40234375 C-1.88287605 82.85592826 -3.64007278 64.43445019 -3.46655273 45.09301758 C-3.43732605 41.54136087 -3.44605658 37.99118167 -3.45898438 34.43945312 C-3.4463271 22.62712565 -3.12469312 11.44530451 0 0 Z " fill="#FCFBFB" transform="translate(25,128)"/>
<path d="M0 0 C3.29960971 0.1178432 4.28879995 1.28208367 6.6875 3.625 C9.26310299 6.88005654 9.75138944 9.85649068 10 14 C8.68 14.33 7.36 14.66 6 15 C1.62427788 10.59751505 -0.86999067 7.50046662 -1 1 C-0.67 0.67 -0.34 0.34 0 0 Z " fill="#120706" transform="translate(454,124)"/>
<path d="M0 0 C2.29296875 -0.23046875 2.29296875 -0.23046875 5 0 C6.80078125 1.57421875 6.80078125 1.57421875 8.3125 3.6875 C8.82425781 4.37199219 9.33601563 5.05648437 9.86328125 5.76171875 C11.18508088 8.36443761 11.21693206 10.11934409 11 13 C9.3125 13.8125 9.3125 13.8125 7 14 C3.89421777 11.41184814 1.32840417 8.8644485 0 5 C-0.125 2.25 -0.125 2.25 0 0 Z " fill="#120606" transform="translate(106,125)"/>
<path d="M0 0 C4.42734904 1.3528011 6.55040063 3.06314386 9 7 C9.75 10.8125 9.75 10.8125 10 14 C8.68 14.33 7.36 14.66 6 15 C1.62427788 10.59751505 -0.86999067 7.50046662 -1 1 C-0.67 0.67 -0.34 0.34 0 0 Z " fill="#0F0505" transform="translate(55,116)"/>
<path d="M0 0 C3.29960971 0.1178432 4.28879995 1.28208367 6.6875 3.625 C9.26310299 6.88005654 9.75138944 9.85649068 10 14 C7.8125 14.375 7.8125 14.375 5 14 C0.66658872 9.96204858 -0.76173912 7.07565238 -1 1 C-0.67 0.67 -0.34 0.34 0 0 Z " fill="#0F0505" transform="translate(143,282)"/>
<path d="M0 0 C2.25 -0.3125 2.25 -0.3125 5 0 C7.57353133 2.6470608 9.79290961 5.48846433 11 9 C10.625 11.75 10.625 11.75 10 14 C7.25729109 13.92163689 5.54241086 13.53068306 3.5546875 11.5859375 C0.56362791 7.70610592 -0.61415978 5.03611017 0 0 Z " fill="#100505" transform="translate(152,192)"/>
<path d="M0 0 C3.80148599 0.21722777 4.96820273 0.96892539 7.75 3.6875 C10.03961434 6.65179693 10.7310291 9.23440747 11 13 C9.35 13.33 7.7 13.66 6 14 C1.44225737 9.32539218 0.33709806 6.51722911 0 0 Z " fill="#0F0505" transform="translate(62,178)"/>
<path d="M0 0 C2.1875 -0.375 2.1875 -0.375 5 0 C7.94003657 2.61336584 9.74867511 4.24700887 10.3125 8.1796875 C10.3125 10.12258607 10.16687234 12.06428088 10 14 C6.68110095 13.72342508 5.23599737 13.21633092 2.75 10.9375 C0.48907182 7.14237056 0.29718044 4.38341148 0 0 Z " fill="#0E0505" transform="translate(89,229)"/>
<path d="M0 0 C3.81477116 0.54496731 5.52338148 2.11061173 8 5 C9.77849395 7.62539583 10.05970273 8.56217997 9.625 11.75 C9.41875 12.4925 9.2125 13.235 9 14 C6.8125 14 6.8125 14 4 13 C1.8383903 10.55892097 0.26010789 8.00617667 -1 5 C-0.8125 2 -0.8125 2 0 0 Z " fill="#0B0403" transform="translate(297,173)"/>
<path d="M0 0 C2.1875 -0.375 2.1875 -0.375 5 0 C7.94003657 2.61336584 9.74867511 4.24700887 10.3125 8.1796875 C10.3125 10.12258607 10.16687234 12.06428088 10 14 C6.07224932 13.10732939 4.29347472 12.33981284 1.625 9.25 C-0.09945894 5.80108212 -0.36139933 3.794693 0 0 Z " fill="#0E0505" transform="translate(244,165)"/>
<path d="M0 0 C2.25 -0.3125 2.25 -0.3125 5 0 C7.92978069 3.09719673 10.92237451 6.33105198 11.125 10.6875 C11.08375 11.450625 11.0425 12.21375 11 13 C9.68 13.33 8.36 13.66 7 14 C2.50664023 9.47915791 0.26327654 6.45027515 0 0 Z " fill="#0E0505" transform="translate(189,105)"/>
<path d="M0 0 C3.76842665 0.21533867 4.99717333 0.99736177 7.8125 3.625 C10.42275746 6.98570648 10.42154726 9.78452743 10 14 C6.23157335 13.78466133 5.00282667 13.00263823 2.1875 10.375 C-0.42275746 7.01429352 -0.42154726 4.21547257 0 0 Z " fill="#0B0403" transform="translate(193,237)"/>
<path d="M0 0 C3.36187774 0.28015648 4.76318238 0.77633891 7.25 3.125 C9.28813505 6.47336473 9.69589219 9.12262548 10 13 C8.68 13.33 7.36 13.66 6 14 C0.02857143 7.08571429 0.02857143 7.08571429 -1 4 C-0.625 1.75 -0.625 1.75 0 0 Z " fill="#0B0403" transform="translate(387,234)"/>
<path d="M0 0 C3.31889905 0.27657492 4.76400263 0.78366908 7.25 3.0625 C9.51092818 6.85762944 9.70281956 9.61658852 10 14 C6 14 6 14 3.3125 11.625 C-0.25980015 7.56995659 -0.09902357 5.34727273 0 0 Z " fill="#0C0404" transform="translate(339,216)"/>
<path d="M0 0 C4.35168065 0.7284335 6.08393718 2.76947386 8.8046875 6.078125 C10.48338914 8.77721392 10.45262267 10.90707841 10 14 C9.01 14.33 8.02 14.66 7 15 C0.04151292 8.224631 0.04151292 8.224631 -0.125 3.3125 C-0.08375 2.219375 -0.0425 1.12625 0 0 Z " fill="#0C0404" transform="translate(393,183)"/>
<path d="M0 0 C3.36187774 0.28015648 4.76318238 0.77633891 7.25 3.125 C9.28813505 6.47336473 9.69589219 9.12262548 10 13 C8.203125 13.65234375 8.203125 13.65234375 6 14 C3.36101027 12.55339783 1.59268046 10.53475616 0 8 C-0.50236734 5.13445568 -0.30366242 2.93540343 0 0 Z " fill="#0D0404" transform="translate(190,147)"/>
<path d="M0 0 C2.25 -0.3125 2.25 -0.3125 5 0 C9.50235938 4.75249045 10.11951709 7.54607704 10 14 C7.8125 14 7.8125 14 5 13 C2.11593033 9.66383293 0.14683841 6.40964878 -0.3125 2 C-0.209375 1.34 -0.10625 0.68 0 0 Z " fill="#0C0404" transform="translate(249,309)"/>
<path d="M0 0 C4.41110531 1.34783774 6.61650722 3.02751203 9 7 C9.25 10.8125 9.25 10.8125 9 14 C5.19094094 13.78233948 4.00633611 13.00605451 1.1875 10.3125 C-1.17176512 6.73989853 -1.58275368 5.17640134 -1 1 C-0.67 0.67 -0.34 0.34 0 0 Z " fill="#0B0403" transform="translate(198,300)"/>
<path d="M0 0 C3.40713122 1.4601991 5.73893429 3.03722424 8 6 C8.62626452 8.70173617 8.81435042 11.21525626 9 14 C8.01 14.33 7.02 14.66 6 15 C2.67193113 12.80834489 0.2425799 10.8407015 -1 7 C-1.1875 3.8125 -1.1875 3.8125 -1 1 C-0.67 0.67 -0.34 0.34 0 0 Z " fill="#0A0303" transform="translate(264,252)"/>
<path d="M0 0 C2.92525181 0.32502798 4.78668664 0.85779109 7.25 2.5 C9.78119125 6.1159875 9.81503313 9.67177534 10 14 C6.42150008 13.70179167 5.23773516 13.25754642 2.75 10.5625 C0.11480679 6.70382423 -0.10136523 4.66280045 0 0 Z " fill="#080302" transform="translate(370,136)"/>
<path d="M0 0 C3.57849992 0.29820833 4.76226484 0.74245358 7.25 3.4375 C9.88519321 7.29617577 10.10136523 9.33719955 10 14 C6.42150008 13.70179167 5.23773516 13.25754642 2.75 10.5625 C0.11480679 6.70382423 -0.10136523 4.66280045 0 0 Z " fill="#080302" transform="translate(310,117)"/>
<path d="M0 0 C3.76842665 0.21533867 4.99717333 0.99736177 7.8125 3.625 C10.42275746 6.98570648 10.42154726 9.78452743 10 14 C6.68110095 13.72342508 5.23599737 13.21633092 2.75 10.9375 C0.48907182 7.14237056 0.29718044 4.38341148 0 0 Z " fill="#090303" transform="translate(234,213)"/>
<path d="M0 0 C3.38210449 1.18830698 5.74353737 2.17942171 8 5 C8.51171875 7.26171875 8.51171875 7.26171875 8.6875 9.6875 C8.78611328 10.89986328 8.78611328 10.89986328 8.88671875 12.13671875 C8.92410156 12.75160156 8.96148437 13.36648437 9 14 C5.63812226 13.71984352 4.23681762 13.22366109 1.75 10.875 C-0.30137472 7.50488439 -0.77410866 4.91544997 -1 1 C-0.67 0.67 -0.34 0.34 0 0 Z " fill="#080302" transform="translate(102,180)"/>
<path d="M0 0 C3.18180029 0.2194345 4.01728258 1.01925774 6.1875 3.4375 C8.90893939 7.28505224 9.10206362 9.30507353 9 14 C5.63812226 13.71984352 4.23681762 13.22366109 1.75 10.875 C-0.30137472 7.50488439 -0.77410866 4.91544997 -1 1 C-0.67 0.67 -0.34 0.34 0 0 Z " fill="#060202" transform="translate(143,240)"/>
<path d="M0 0 C2.9651327 0.32945919 4.78260543 0.84903155 7.25 2.5625 C9.73398489 6.0223361 9.7184615 8.77692253 10 13 C7.75 13.3125 7.75 13.3125 5 13 C0.82418332 8.5921935 -0.12996604 5.97843791 0 0 Z " fill="#070202" transform="translate(323,272)"/>
<path d="M0 0 C1.27875 -0.061875 2.5575 -0.12375 3.875 -0.1875 C4.95394531 -0.23970703 4.95394531 -0.23970703 6.0546875 -0.29296875 C6.69664062 -0.19628906 7.33859375 -0.09960938 8 0 C10.4294516 3.6441774 10.16179575 5.71241272 10 10 C7.35337395 9.84876423 5.55721506 9.49998757 3.5546875 7.703125 C0 3.6 0 3.6 0 0 Z " fill="#0B0404" transform="translate(240,105)"/>
<path d="M0 0 C1.27875 -0.061875 2.5575 -0.12375 3.875 -0.1875 C4.95394531 -0.23970703 4.95394531 -0.23970703 6.0546875 -0.29296875 C6.69664062 -0.19628906 7.33859375 -0.09960938 8 0 C10.29013653 3.4352048 10.17842973 4.985331 10 9 C8.68 9.33 7.36 9.66 6 10 C0.42857143 3.71428571 0.42857143 3.71428571 0 0 Z " fill="#0F0505" transform="translate(399,111)"/>
<path d="M0 0 C0.33 0 0.66 0 1 0 C1.28734152 10.2165875 0.46764474 19.90994238 -1 30 C-1.33 30 -1.66 30 -2 30 C-2.33 28.02 -2.66 26.04 -3 24 C-3.66 24.99 -4.32 25.98 -5 27 C-4.2350912 21.13033144 -3.11897555 15.36133228 -1.9375 9.5625 C-1.75123047 8.64017578 -1.56496094 7.71785156 -1.37304688 6.76757812 C-0.9171263 4.51135577 -0.4594036 2.25551526 0 0 Z " fill="#DFD8D2" transform="translate(471,145)"/>
<path d="M0 0 C6.15234375 -0.09765625 6.15234375 -0.09765625 8 0 C9 1 9 1 9.0625 3.5625 C9.041875 4.366875 9.02125 5.17125 9 6 C6.75 6.3125 6.75 6.3125 4 6 C0 1.78378378 0 1.78378378 0 0 Z " fill="#190D0D" transform="translate(138,101)"/>
<path d="M0 0 C1.2380014 3.57644848 0.74926071 6.33694766 0 10 C-1.32 10.33 -2.64 10.66 -4 11 C-3.52269162 9.5410574 -3.04308958 8.08286504 -2.5625 6.625 C-2.29566406 5.81289062 -2.02882813 5.00078125 -1.75390625 4.1640625 C-1 2 -1 2 0 0 Z " fill="#516D4B" transform="translate(29,101)"/>
</svg>
